<svg xmlns="http://www.w3.org/2000/svg" viewBox="0 0 64 64" fill="none">
  <defs>
    <linearGradient id="logoGradient" x1="0%" y1="0%" x2="100%" y2="100%">
      <stop offset="0%" style="stop-color:#1677ff;stop-opacity:1" />
      <stop offset="100%" style="stop-color:#0958d9;stop-opacity:1" />
    </linearGradient>
  </defs>
  
  <!-- Background circle -->
  <circle cx="32" cy="32" r="30" fill="url(#logoGradient)"/>
  
  <!-- Building/Construction structure -->
  <rect x="18" y="20" width="8" height="24" fill="white" rx="1"/>
  <rect x="28" y="14" width="8" height="30" fill="white" rx="1"/>
  <rect x="38" y="18" width="8" height="26" fill="white" rx="1"/>
  
  <!-- Windows on buildings -->
  <rect x="20" y="24" width="2" height="2" fill="#1677ff"/>
  <rect x="24" y="24" width="2" height="2" fill="#1677ff"/>
  <rect x="20" y="28" width="2" height="2" fill="#1677ff"/>
  <rect x="24" y="28" width="2" height="2" fill="#1677ff"/>
  
  <rect x="30" y="18" width="2" height="2" fill="#1677ff"/>
  <rect x="34" y="18" width="2" height="2" fill="#1677ff"/>
  <rect x="30" y="22" width="2" height="2" fill="#1677ff"/>
  <rect x="34" y="22" width="2" height="2" fill="#1677ff"/>
  <rect x="30" y="26" width="2" height="2" fill="#1677ff"/>
  <rect x="34" y="26" width="2" height="2" fill="#1677ff"/>
  
  <rect x="40" y="22" width="2" height="2" fill="#1677ff"/>
  <rect x="44" y="22" width="2" height="2" fill="#1677ff"/>
  <rect x="40" y="26" width="2" height="2" fill="#1677ff"/>
  <rect x="44" y="26" width="2" height="2" fill="#1677ff"/>
  
  <!-- Document/Contract symbol at bottom -->
  <path d="M 14 38 L 14 50 L 50 50 L 50 38 L 14 38 Z" fill="white" rx="1"/>
  <line x1="18" y1="42" x2="46" y2="42" stroke="#1677ff" stroke-width="1.5" stroke-linecap="round"/>
  <line x1="18" y1="46" x2="40" y2="46" stroke="#1677ff" stroke-width="1.5" stroke-linecap="round"/>
  
  <!-- Checkmark/Approval symbol -->
  <circle cx="45" cy="44" r="4" fill="#52c41a"/>
  <path d="M 43 44 L 44.5 45.5 L 47 43" stroke="white" stroke-width="1.5" stroke-linecap="round" stroke-linejoin="round" fill="none"/>
</svg>
